<mxfile host="app.diagrams.net" modified="2023-12-06T09:27:30.353Z" agent="Mozilla/5.0 (Macintosh; Intel Mac OS X 10_15_7) AppleWebKit/537.36 (KHTML, like Gecko) Chrome/119.0.0.0 Safari/537.36" etag="KetlByTKq8pJzJZINFei" version="22.1.5" type="github">
  <diagram name="第 1 页" id="aCIg8YRPFAtUTCsM-EBS">
    <mxGraphModel dx="2141" dy="1975" grid="1" gridSize="10" guides="1" tooltips="1" connect="1" arrows="1" fold="1" page="1" pageScale="1" pageWidth="827" pageHeight="1169" math="0" shadow="0">
      <root>
        <mxCell id="0" />
        <mxCell id="1" parent="0" />
        <mxCell id="j4Mnbgfn0tQtwpHcykBt-11" value="" style="edgeStyle=orthogonalEdgeStyle;rounded=0;orthogonalLoop=1;jettySize=auto;html=1;" edge="1" parent="1" source="j4Mnbgfn0tQtwpHcykBt-2" target="j4Mnbgfn0tQtwpHcykBt-10">
          <mxGeometry relative="1" as="geometry" />
        </mxCell>
        <mxCell id="j4Mnbgfn0tQtwpHcykBt-2" value="页面加载" style="rounded=0;whiteSpace=wrap;html=1;" vertex="1" parent="1">
          <mxGeometry x="480" y="50" width="120" height="60" as="geometry" />
        </mxCell>
        <mxCell id="j4Mnbgfn0tQtwpHcykBt-7" value="" style="edgeStyle=orthogonalEdgeStyle;rounded=0;orthogonalLoop=1;jettySize=auto;html=1;" edge="1" parent="1" source="j4Mnbgfn0tQtwpHcykBt-4" target="j4Mnbgfn0tQtwpHcykBt-6">
          <mxGeometry relative="1" as="geometry" />
        </mxCell>
        <mxCell id="j4Mnbgfn0tQtwpHcykBt-39" value="" style="edgeStyle=orthogonalEdgeStyle;rounded=0;orthogonalLoop=1;jettySize=auto;html=1;" edge="1" parent="1" source="j4Mnbgfn0tQtwpHcykBt-4" target="j4Mnbgfn0tQtwpHcykBt-38">
          <mxGeometry relative="1" as="geometry">
            <Array as="points">
              <mxPoint x="810" y="960" />
              <mxPoint x="810" y="1220" />
            </Array>
          </mxGeometry>
        </mxCell>
        <mxCell id="j4Mnbgfn0tQtwpHcykBt-4" value="有没有导航筛选" style="rhombus;whiteSpace=wrap;html=1;rounded=0;" vertex="1" parent="1">
          <mxGeometry x="470" y="920" width="140" height="80" as="geometry" />
        </mxCell>
        <mxCell id="j4Mnbgfn0tQtwpHcykBt-40" style="edgeStyle=orthogonalEdgeStyle;rounded=0;orthogonalLoop=1;jettySize=auto;html=1;exitX=0.5;exitY=1;exitDx=0;exitDy=0;" edge="1" parent="1" source="j4Mnbgfn0tQtwpHcykBt-6" target="j4Mnbgfn0tQtwpHcykBt-38">
          <mxGeometry relative="1" as="geometry" />
        </mxCell>
        <mxCell id="j4Mnbgfn0tQtwpHcykBt-6" value="筛选商品" style="whiteSpace=wrap;html=1;rounded=0;" vertex="1" parent="1">
          <mxGeometry x="480" y="1059" width="120" height="60" as="geometry" />
        </mxCell>
        <mxCell id="j4Mnbgfn0tQtwpHcykBt-13" value="" style="edgeStyle=orthogonalEdgeStyle;rounded=0;orthogonalLoop=1;jettySize=auto;html=1;" edge="1" parent="1" source="j4Mnbgfn0tQtwpHcykBt-10" target="j4Mnbgfn0tQtwpHcykBt-12">
          <mxGeometry relative="1" as="geometry" />
        </mxCell>
        <mxCell id="j4Mnbgfn0tQtwpHcykBt-10" value="初始化城市" style="whiteSpace=wrap;html=1;rounded=0;" vertex="1" parent="1">
          <mxGeometry x="480" y="160" width="120" height="60" as="geometry" />
        </mxCell>
        <mxCell id="j4Mnbgfn0tQtwpHcykBt-18" style="edgeStyle=orthogonalEdgeStyle;rounded=0;orthogonalLoop=1;jettySize=auto;html=1;exitX=0.5;exitY=1;exitDx=0;exitDy=0;" edge="1" parent="1" source="j4Mnbgfn0tQtwpHcykBt-12" target="j4Mnbgfn0tQtwpHcykBt-17">
          <mxGeometry relative="1" as="geometry" />
        </mxCell>
        <mxCell id="j4Mnbgfn0tQtwpHcykBt-20" value="" style="edgeStyle=orthogonalEdgeStyle;rounded=0;orthogonalLoop=1;jettySize=auto;html=1;" edge="1" parent="1" source="j4Mnbgfn0tQtwpHcykBt-12" target="j4Mnbgfn0tQtwpHcykBt-19">
          <mxGeometry relative="1" as="geometry" />
        </mxCell>
        <mxCell id="j4Mnbgfn0tQtwpHcykBt-12" value="获取到用户所在城市" style="rhombus;whiteSpace=wrap;html=1;rounded=0;" vertex="1" parent="1">
          <mxGeometry x="475" y="242" width="130" height="80" as="geometry" />
        </mxCell>
        <mxCell id="j4Mnbgfn0tQtwpHcykBt-16" value="获取到" style="text;html=1;align=center;verticalAlign=middle;resizable=0;points=[];autosize=1;strokeColor=none;fillColor=none;" vertex="1" parent="1">
          <mxGeometry x="520" y="336" width="60" height="30" as="geometry" />
        </mxCell>
        <mxCell id="j4Mnbgfn0tQtwpHcykBt-26" value="" style="edgeStyle=orthogonalEdgeStyle;rounded=0;orthogonalLoop=1;jettySize=auto;html=1;" edge="1" parent="1" source="j4Mnbgfn0tQtwpHcykBt-17" target="j4Mnbgfn0tQtwpHcykBt-25">
          <mxGeometry relative="1" as="geometry" />
        </mxCell>
        <mxCell id="j4Mnbgfn0tQtwpHcykBt-32" style="edgeStyle=orthogonalEdgeStyle;rounded=0;orthogonalLoop=1;jettySize=auto;html=1;exitX=1;exitY=0.5;exitDx=0;exitDy=0;entryX=0.5;entryY=1;entryDx=0;entryDy=0;" edge="1" parent="1" source="j4Mnbgfn0tQtwpHcykBt-17" target="j4Mnbgfn0tQtwpHcykBt-19">
          <mxGeometry relative="1" as="geometry">
            <mxPoint x="680" y="342" as="targetPoint" />
          </mxGeometry>
        </mxCell>
        <mxCell id="j4Mnbgfn0tQtwpHcykBt-17" value="商品所在城市是否含有用户的城市" style="rhombus;whiteSpace=wrap;html=1;" vertex="1" parent="1">
          <mxGeometry x="500" y="395" width="80" height="80" as="geometry" />
        </mxCell>
        <mxCell id="j4Mnbgfn0tQtwpHcykBt-63" style="edgeStyle=orthogonalEdgeStyle;rounded=0;orthogonalLoop=1;jettySize=auto;html=1;exitX=1;exitY=0.5;exitDx=0;exitDy=0;entryX=1;entryY=0.5;entryDx=0;entryDy=0;" edge="1" parent="1" source="j4Mnbgfn0tQtwpHcykBt-19" target="j4Mnbgfn0tQtwpHcykBt-28">
          <mxGeometry relative="1" as="geometry" />
        </mxCell>
        <mxCell id="j4Mnbgfn0tQtwpHcykBt-19" value="选中第一个商品的城市" style="whiteSpace=wrap;html=1;rounded=0;" vertex="1" parent="1">
          <mxGeometry x="690" y="252" width="120" height="60" as="geometry" />
        </mxCell>
        <mxCell id="j4Mnbgfn0tQtwpHcykBt-21" value="未获取到" style="text;html=1;align=center;verticalAlign=middle;resizable=0;points=[];autosize=1;strokeColor=none;fillColor=none;" vertex="1" parent="1">
          <mxGeometry x="605" y="260" width="70" height="30" as="geometry" />
        </mxCell>
        <mxCell id="j4Mnbgfn0tQtwpHcykBt-30" style="edgeStyle=orthogonalEdgeStyle;rounded=0;orthogonalLoop=1;jettySize=auto;html=1;exitX=0.5;exitY=1;exitDx=0;exitDy=0;entryX=0.5;entryY=0;entryDx=0;entryDy=0;" edge="1" parent="1" source="j4Mnbgfn0tQtwpHcykBt-25" target="j4Mnbgfn0tQtwpHcykBt-28">
          <mxGeometry relative="1" as="geometry" />
        </mxCell>
        <mxCell id="j4Mnbgfn0tQtwpHcykBt-25" value="选中所在城市" style="whiteSpace=wrap;html=1;" vertex="1" parent="1">
          <mxGeometry x="480" y="558" width="120" height="60" as="geometry" />
        </mxCell>
        <mxCell id="j4Mnbgfn0tQtwpHcykBt-27" value="是" style="text;html=1;align=center;verticalAlign=middle;resizable=0;points=[];autosize=1;strokeColor=none;fillColor=none;" vertex="1" parent="1">
          <mxGeometry x="530" y="496" width="40" height="30" as="geometry" />
        </mxCell>
        <mxCell id="j4Mnbgfn0tQtwpHcykBt-57" style="edgeStyle=orthogonalEdgeStyle;rounded=0;orthogonalLoop=1;jettySize=auto;html=1;exitX=0;exitY=0.5;exitDx=0;exitDy=0;entryX=1;entryY=0.5;entryDx=0;entryDy=0;" edge="1" parent="1" source="j4Mnbgfn0tQtwpHcykBt-28" target="j4Mnbgfn0tQtwpHcykBt-56">
          <mxGeometry relative="1" as="geometry" />
        </mxCell>
        <mxCell id="j4Mnbgfn0tQtwpHcykBt-61" value="" style="edgeStyle=orthogonalEdgeStyle;rounded=0;orthogonalLoop=1;jettySize=auto;html=1;" edge="1" parent="1" source="j4Mnbgfn0tQtwpHcykBt-28" target="j4Mnbgfn0tQtwpHcykBt-60">
          <mxGeometry relative="1" as="geometry" />
        </mxCell>
        <mxCell id="j4Mnbgfn0tQtwpHcykBt-28" value="确定城市" style="whiteSpace=wrap;html=1;rounded=0;" vertex="1" parent="1">
          <mxGeometry x="480" y="698" width="120" height="60" as="geometry" />
        </mxCell>
        <mxCell id="j4Mnbgfn0tQtwpHcykBt-34" value="否" style="text;html=1;align=center;verticalAlign=middle;resizable=0;points=[];autosize=1;strokeColor=none;fillColor=none;" vertex="1" parent="1">
          <mxGeometry x="670" y="413" width="40" height="30" as="geometry" />
        </mxCell>
        <mxCell id="j4Mnbgfn0tQtwpHcykBt-36" value="是" style="text;html=1;align=center;verticalAlign=middle;resizable=0;points=[];autosize=1;strokeColor=none;fillColor=none;" vertex="1" parent="1">
          <mxGeometry x="530" y="1002" width="40" height="30" as="geometry" />
        </mxCell>
        <mxCell id="j4Mnbgfn0tQtwpHcykBt-43" value="" style="edgeStyle=orthogonalEdgeStyle;rounded=0;orthogonalLoop=1;jettySize=auto;html=1;" edge="1" parent="1" source="j4Mnbgfn0tQtwpHcykBt-38" target="j4Mnbgfn0tQtwpHcykBt-42">
          <mxGeometry relative="1" as="geometry" />
        </mxCell>
        <mxCell id="j4Mnbgfn0tQtwpHcykBt-51" value="" style="edgeStyle=orthogonalEdgeStyle;rounded=0;orthogonalLoop=1;jettySize=auto;html=1;" edge="1" parent="1" source="j4Mnbgfn0tQtwpHcykBt-38" target="j4Mnbgfn0tQtwpHcykBt-50">
          <mxGeometry relative="1" as="geometry" />
        </mxCell>
        <mxCell id="j4Mnbgfn0tQtwpHcykBt-66" value="" style="edgeStyle=orthogonalEdgeStyle;rounded=0;orthogonalLoop=1;jettySize=auto;html=1;" edge="1" parent="1" source="j4Mnbgfn0tQtwpHcykBt-38" target="j4Mnbgfn0tQtwpHcykBt-65">
          <mxGeometry relative="1" as="geometry" />
        </mxCell>
        <mxCell id="j4Mnbgfn0tQtwpHcykBt-38" value="展示商品卡片列表" style="whiteSpace=wrap;html=1;rounded=0;" vertex="1" parent="1">
          <mxGeometry x="480" y="1190" width="120" height="60" as="geometry" />
        </mxCell>
        <mxCell id="j4Mnbgfn0tQtwpHcykBt-41" value="否" style="text;html=1;align=center;verticalAlign=middle;resizable=0;points=[];autosize=1;strokeColor=none;fillColor=none;" vertex="1" parent="1">
          <mxGeometry x="670" y="930" width="40" height="30" as="geometry" />
        </mxCell>
        <mxCell id="j4Mnbgfn0tQtwpHcykBt-45" value="" style="edgeStyle=orthogonalEdgeStyle;rounded=0;orthogonalLoop=1;jettySize=auto;html=1;" edge="1" parent="1" source="j4Mnbgfn0tQtwpHcykBt-42" target="j4Mnbgfn0tQtwpHcykBt-44">
          <mxGeometry relative="1" as="geometry" />
        </mxCell>
        <mxCell id="j4Mnbgfn0tQtwpHcykBt-48" style="edgeStyle=orthogonalEdgeStyle;rounded=0;orthogonalLoop=1;jettySize=auto;html=1;exitX=0;exitY=0.5;exitDx=0;exitDy=0;entryX=1;entryY=0.5;entryDx=0;entryDy=0;" edge="1" parent="1" source="j4Mnbgfn0tQtwpHcykBt-42" target="j4Mnbgfn0tQtwpHcykBt-46">
          <mxGeometry relative="1" as="geometry" />
        </mxCell>
        <mxCell id="j4Mnbgfn0tQtwpHcykBt-42" value="选中第一个商品" style="whiteSpace=wrap;html=1;rounded=0;" vertex="1" parent="1">
          <mxGeometry x="480" y="1330" width="120" height="60" as="geometry" />
        </mxCell>
        <mxCell id="j4Mnbgfn0tQtwpHcykBt-77" value="" style="edgeStyle=orthogonalEdgeStyle;rounded=0;orthogonalLoop=1;jettySize=auto;html=1;" edge="1" parent="1" source="j4Mnbgfn0tQtwpHcykBt-44" target="j4Mnbgfn0tQtwpHcykBt-76">
          <mxGeometry relative="1" as="geometry" />
        </mxCell>
        <mxCell id="j4Mnbgfn0tQtwpHcykBt-44" value="显示商品详情文字描述" style="whiteSpace=wrap;html=1;rounded=0;" vertex="1" parent="1">
          <mxGeometry x="462.5" y="1470" width="155" height="60" as="geometry" />
        </mxCell>
        <mxCell id="j4Mnbgfn0tQtwpHcykBt-49" style="edgeStyle=orthogonalEdgeStyle;rounded=0;orthogonalLoop=1;jettySize=auto;html=1;exitX=0.5;exitY=1;exitDx=0;exitDy=0;entryX=0;entryY=0.5;entryDx=0;entryDy=0;" edge="1" parent="1" source="j4Mnbgfn0tQtwpHcykBt-46" target="j4Mnbgfn0tQtwpHcykBt-44">
          <mxGeometry relative="1" as="geometry" />
        </mxCell>
        <mxCell id="j4Mnbgfn0tQtwpHcykBt-46" value="点击其他商品卡片" style="whiteSpace=wrap;html=1;rounded=0;" vertex="1" parent="1">
          <mxGeometry x="250" y="1330" width="120" height="60" as="geometry" />
        </mxCell>
        <mxCell id="j4Mnbgfn0tQtwpHcykBt-64" style="edgeStyle=orthogonalEdgeStyle;rounded=0;orthogonalLoop=1;jettySize=auto;html=1;exitX=0.5;exitY=0;exitDx=0;exitDy=0;entryX=0;entryY=0.5;entryDx=0;entryDy=0;" edge="1" parent="1" source="j4Mnbgfn0tQtwpHcykBt-50" target="j4Mnbgfn0tQtwpHcykBt-6">
          <mxGeometry relative="1" as="geometry" />
        </mxCell>
        <mxCell id="j4Mnbgfn0tQtwpHcykBt-50" value="点击切换城市" style="whiteSpace=wrap;html=1;rounded=0;" vertex="1" parent="1">
          <mxGeometry x="240" y="1140" width="120" height="60" as="geometry" />
        </mxCell>
        <mxCell id="j4Mnbgfn0tQtwpHcykBt-56" value="同步城市到货架（可选）" style="shape=parallelogram;perimeter=parallelogramPerimeter;whiteSpace=wrap;html=1;fixedSize=1;" vertex="1" parent="1">
          <mxGeometry x="220" y="698" width="180" height="60" as="geometry" />
        </mxCell>
        <mxCell id="j4Mnbgfn0tQtwpHcykBt-62" style="edgeStyle=orthogonalEdgeStyle;rounded=0;orthogonalLoop=1;jettySize=auto;html=1;exitX=0.5;exitY=1;exitDx=0;exitDy=0;entryX=0.5;entryY=0;entryDx=0;entryDy=0;" edge="1" parent="1" source="j4Mnbgfn0tQtwpHcykBt-60" target="j4Mnbgfn0tQtwpHcykBt-4">
          <mxGeometry relative="1" as="geometry" />
        </mxCell>
        <mxCell id="j4Mnbgfn0tQtwpHcykBt-60" value="拿到该城市的商品" style="whiteSpace=wrap;html=1;rounded=0;" vertex="1" parent="1">
          <mxGeometry x="480" y="820" width="120" height="60" as="geometry" />
        </mxCell>
        <mxCell id="j4Mnbgfn0tQtwpHcykBt-68" value="" style="edgeStyle=orthogonalEdgeStyle;rounded=0;orthogonalLoop=1;jettySize=auto;html=1;" edge="1" parent="1" source="j4Mnbgfn0tQtwpHcykBt-65" target="j4Mnbgfn0tQtwpHcykBt-67">
          <mxGeometry relative="1" as="geometry" />
        </mxCell>
        <mxCell id="j4Mnbgfn0tQtwpHcykBt-65" value="点击切换导航筛选" style="whiteSpace=wrap;html=1;rounded=0;" vertex="1" parent="1">
          <mxGeometry x="240" y="1240" width="120" height="60" as="geometry" />
        </mxCell>
        <mxCell id="j4Mnbgfn0tQtwpHcykBt-70" value="" style="edgeStyle=orthogonalEdgeStyle;rounded=0;orthogonalLoop=1;jettySize=auto;html=1;" edge="1" parent="1" source="j4Mnbgfn0tQtwpHcykBt-67" target="j4Mnbgfn0tQtwpHcykBt-69">
          <mxGeometry relative="1" as="geometry" />
        </mxCell>
        <mxCell id="j4Mnbgfn0tQtwpHcykBt-73" value="" style="edgeStyle=orthogonalEdgeStyle;rounded=0;orthogonalLoop=1;jettySize=auto;html=1;entryX=0;entryY=0.5;entryDx=0;entryDy=0;" edge="1" parent="1" source="j4Mnbgfn0tQtwpHcykBt-67" target="j4Mnbgfn0tQtwpHcykBt-6">
          <mxGeometry relative="1" as="geometry">
            <mxPoint x="75" y="1140" as="targetPoint" />
            <Array as="points">
              <mxPoint x="75" y="1089" />
            </Array>
          </mxGeometry>
        </mxCell>
        <mxCell id="j4Mnbgfn0tQtwpHcykBt-67" value="当前城市是否有没有该导航分类的数据" style="rhombus;whiteSpace=wrap;html=1;rounded=0;" vertex="1" parent="1">
          <mxGeometry x="10" y="1230" width="130" height="80" as="geometry" />
        </mxCell>
        <mxCell id="j4Mnbgfn0tQtwpHcykBt-75" style="edgeStyle=orthogonalEdgeStyle;rounded=0;orthogonalLoop=1;jettySize=auto;html=1;exitX=0.5;exitY=0;exitDx=0;exitDy=0;entryX=0;entryY=0.5;entryDx=0;entryDy=0;" edge="1" parent="1" source="j4Mnbgfn0tQtwpHcykBt-69" target="j4Mnbgfn0tQtwpHcykBt-6">
          <mxGeometry relative="1" as="geometry" />
        </mxCell>
        <mxCell id="j4Mnbgfn0tQtwpHcykBt-69" value="选择第一个有此导航筛选的城市" style="whiteSpace=wrap;html=1;rounded=0;" vertex="1" parent="1">
          <mxGeometry x="-195" y="1240" width="120" height="60" as="geometry" />
        </mxCell>
        <mxCell id="j4Mnbgfn0tQtwpHcykBt-71" value="否" style="text;html=1;align=center;verticalAlign=middle;resizable=0;points=[];autosize=1;strokeColor=none;fillColor=none;" vertex="1" parent="1">
          <mxGeometry x="-50" y="1238" width="40" height="30" as="geometry" />
        </mxCell>
        <mxCell id="j4Mnbgfn0tQtwpHcykBt-74" value="是" style="text;html=1;align=center;verticalAlign=middle;resizable=0;points=[];autosize=1;strokeColor=none;fillColor=none;" vertex="1" parent="1">
          <mxGeometry x="70" y="1168" width="40" height="30" as="geometry" />
        </mxCell>
        <mxCell id="j4Mnbgfn0tQtwpHcykBt-76" value="" style="ellipse;whiteSpace=wrap;html=1;rounded=0;" vertex="1" parent="1">
          <mxGeometry x="500" y="1600" width="80" height="80" as="geometry" />
        </mxCell>
        <mxCell id="j4Mnbgfn0tQtwpHcykBt-80" style="edgeStyle=orthogonalEdgeStyle;rounded=0;orthogonalLoop=1;jettySize=auto;html=1;exitX=0.5;exitY=1;exitDx=0;exitDy=0;entryX=0.5;entryY=0;entryDx=0;entryDy=0;" edge="1" parent="1" source="j4Mnbgfn0tQtwpHcykBt-78" target="j4Mnbgfn0tQtwpHcykBt-2">
          <mxGeometry relative="1" as="geometry" />
        </mxCell>
        <mxCell id="j4Mnbgfn0tQtwpHcykBt-78" value="" style="ellipse;whiteSpace=wrap;html=1;rounded=0;" vertex="1" parent="1">
          <mxGeometry x="500" y="-100" width="80" height="80" as="geometry" />
        </mxCell>
      </root>
    </mxGraphModel>
  </diagram>
</mxfile>
